PathFileType	4	(X/Y/Z)	SUBJ26_2_walk_RCNL2025.trc
DataRate	CameraRate	NumFrames	NumMarkers	Units	OrigDataRate	OrigDataStartFrame	OrigNumFrames
100	100	11	25	mm	100	299	341
Frame#	Time	R_Shoulder			L_Shoulder			C7			J_Notch			R_Elbow			L_Elbow			R_Wrist			L_Wrist			R_Asis			L_Asis			Sacral			Thoracic			Sternum			R_Thigh_Lateral			R_Knee_Lateral			R_Shank_Lateral			R_Ankle_Lateral			R_Heel			R_Toe			L_Thigh_Lateral			L_Knee_Lateral			L_Shank_Lateral			L_Ankle_Lateral			L_Heel			L_Toe		
		X1	Y1	Z1	X2	Y2	Z2	X3	Y3	Z3	X4	Y4	Z4	X5	Y5	Z5	X6	Y6	Z6	X7	Y7	Z7	X8	Y8	Z8	X9	Y9	Z9	X10	Y10	Z10	X11	Y11	Z11	X12	Y12	Z12	X13	Y13	Z13	X14	Y14	Z14	X15	Y15	Z15	X16	Y16	Z16	X17	Y17	Z17	X18	Y18	Z18	X19	Y19	Z19	X20	Y20	Z20	X21	Y21	Z21	X22	Y22	Z22	X23	Y23	Z23	X24	Y24	Z24	X25	Y25	Z25
299	2.98000000	2272.765625	1310.185059	-61.098713	2249.989990	1312.362915	-395.684326	2178.545898	1373.486572	-214.096130	2324.027588	1275.325439	-237.095886	2194.741699	995.689514	40.081135	2184.924072	990.362000	-492.371704	2283.547607	758.511719	35.141604	2274.689697	761.070984	-508.889969	2303.449219	900.270508	-86.487198	2274.606201	912.011353	-390.358368	2085.438721	913.833191	-215.711868	2104.051514	1026.944214	-216.651230	2370.133301	1017.954712	-223.634628	2269.989258	569.022339	-12.451491	2324.735107	434.058044	-56.109512	2235.218750	321.223572	-21.209486	2091.678223	135.290680	-107.373558	2044.428955	155.982452	-168.970291	2184.808350	59.637489	-130.908875	2239.337402	593.362671	-408.813049	2236.170898	427.054047	-321.347168	2208.918701	245.987701	-377.623383	2168.433838	48.544262	-280.215302	2100.805420	33.950386	-232.762924	2281.898682	33.201885	-233.200089
300	2.99000000	2283.708252	1310.676514	-61.062534	2262.579590	1312.750244	-395.955566	2190.531494	1373.739624	-214.842514	2335.960693	1275.505493	-236.978226	2203.099854	996.024719	38.928932	2202.970459	990.542297	-494.242249	2289.705200	758.040070	34.974113	2299.299683	763.813049	-509.776978	2315.667969	900.860352	-87.933632	2285.392334	912.003296	-391.552246	2097.012207	914.014343	-215.255905	2115.738525	1027.200684	-217.120300	2381.753418	1018.264099	-223.633286	2288.574219	569.927795	-13.714659	2347.684326	436.425140	-57.388573	2263.485840	319.213196	-21.609310	2129.511719	125.616821	-106.432747	2080.499512	142.769608	-167.897156	2227.287842	56.344086	-129.311310	2247.301270	593.457153	-408.958923	2239.015625	427.208221	-321.443665	2210.034424	246.068954	-377.691498	2168.533203	48.701324	-280.159088	2100.906250	34.434788	-232.800690	2281.984131	33.202061	-233.137314
301	3.00000000	2294.635254	1310.956787	-61.029217	2275.120117	1312.895264	-396.207611	2202.500732	1373.794067	-215.561035	2347.882812	1275.495728	-236.840408	2211.503906	996.191772	37.876991	2221.014160	990.569946	-496.035156	2296.085449	757.493713	34.929024	2323.842163	766.589539	-510.562653	2327.901367	901.189941	-89.367912	2296.266846	911.808289	-392.681458	2108.583740	914.015930	-214.807175	2127.389893	1027.275513	-217.489731	2393.414551	1018.428894	-223.690491	2306.916992	570.756775	-15.080862	2369.965332	438.655029	-58.891464	2291.584229	316.995331	-22.131866	2168.388916	115.757042	-105.409248	2117.835205	129.183899	-166.721451	2270.426025	53.280907	-127.813797	2254.954590	593.416199	-409.069550	2241.825439	427.401978	-321.498779	2211.161865	246.207428	-377.734467	2168.617676	48.901154	-280.069244	2100.991699	34.981445	-232.783615	2282.075195	33.200874	-233.068100
302	3.01000000	2305.573486	1311.013428	-61.002434	2287.628174	1312.787109	-396.433014	2214.457031	1373.647949	-216.241684	2359.800781	1275.297119	-236.696106	2220.010498	996.188782	36.931377	2239.062012	990.449707	-497.739716	2302.702637	756.848877	34.999063	2348.276367	769.385223	-511.246475	2340.140869	901.247192	-90.755600	2307.281738	911.454590	-393.715027	2120.179932	913.860718	-214.385788	2139.018311	1027.173462	-217.759720	2405.106934	1018.442017	-223.793411	2324.931641	571.472961	-16.575212	2391.486328	440.696838	-60.606106	2319.503662	314.640472	-22.811565	2208.279785	105.947105	-104.372658	2156.472168	115.476326	-165.531754	2314.140137	50.642921	-126.495224	2262.248047	593.270325	-409.169891	2244.549561	427.652405	-321.523010	2212.242188	246.422379	-377.751068	2168.682861	49.159424	-279.934448	2101.051025	35.604008	-232.683563	2282.167969	33.195091	-232.992340
303	3.02000000	2316.548340	1310.842163	-60.985474	2300.117188	1312.423218	-396.624847	2226.402344	1373.300659	-216.878296	2371.719482	1274.912964	-236.557053	2228.679932	996.021423	36.101486	2257.116455	990.191528	-499.344391	2309.567261	756.087982	35.174002	2372.564087	772.189392	-511.826080	2352.385254	901.029602	-92.068817	2318.468018	910.970215	-394.634003	2131.830811	913.564636	-214.001251	2150.643311	1026.895874	-217.930084	2416.827148	1018.294434	-223.925446	2342.506592	572.028381	-18.241917	2412.148438	442.491791	-62.530289	2347.213623	312.220978	-23.675379	2249.107910	96.437737	-103.406570	2196.368164	101.937424	-164.433060	2358.302246	48.608398	-125.451683	2269.110352	593.053040	-409.289337	2247.129395	427.981110	-321.526703	2213.199707	246.735764	-377.741791	2168.727539	49.496044	-279.744476	2101.085938	36.320034	-232.478851	2282.255615	33.182354	-232.908997
304	3.03000000	2327.582520	1310.446289	-60.980972	2312.596191	1311.808105	-396.776917	2238.337158	1372.752808	-217.465302	2383.642822	1274.347778	-236.432434	2237.567871	995.699829	35.397263	2275.173096	989.808228	-500.838898	2316.689087	755.200958	35.443910	2396.669678	774.994202	-512.298141	2364.640869	900.546753	-93.285873	2329.822998	910.375488	-395.436584	2143.558350	913.135559	-213.655960	2162.285645	1026.441650	-218.004303	2428.579834	1017.976196	-224.067368	2359.519531	572.366089	-20.130169	2431.862061	443.978119	-64.667816	2374.656006	309.800049	-24.742208	2290.725830	87.479431	-102.610565	2237.382568	88.889313	-163.545700	2402.733154	47.330315	-124.778236	2275.462891	592.799133	-409.458862	2249.528076	428.409485	-321.520966	2213.972656	247.168701	-377.710876	2168.753906	49.932198	-279.491608	2101.110352	37.150650	-232.154755	2282.329834	33.161343	-232.815247
305	3.04000000	2338.694824	1309.836182	-60.990536	2325.072266	1310.953003	-396.885101	2250.262939	1372.007568	-217.995743	2395.574707	1273.608154	-236.328400	2246.714111	995.234375	34.823818	2293.220947	989.314819	-502.216278	2324.079346	754.186188	35.801393	2420.559692	777.793182	-512.658691	2376.920166	899.820740	-94.392479	2341.315674	909.682434	-396.136475	2155.371338	912.574219	-213.347794	2173.964111	1025.810425	-217.991867	2440.377197	1017.477966	-224.198776	2375.857178	572.425537	-22.276413	2450.572998	445.103088	-67.017128	2401.744385	307.427917	-26.026154	2332.897217	79.303940	-102.096977	2279.272461	76.664246	-162.993149	2447.196777	46.921745	-124.546364	2281.247070	592.543396	-409.703766	2251.753906	428.951691	-321.518524	2214.536621	247.737106	-377.664795	2168.765625	50.486835	-279.170074	2101.144043	38.118397	-231.701660	2282.383545	33.132740	-232.706711
306	3.05000000	2349.901367	1309.027344	-61.014339	2337.549561	1309.876343	-396.947906	2262.183838	1371.070923	-218.462997	2407.519531	1272.701416	-236.247513	2256.138428	994.633362	34.378452	2311.242920	988.727234	-503.471893	2331.752563	753.050507	36.242035	2444.202515	780.580902	-512.903427	2389.237061	898.884583	-95.383377	2352.906982	908.897217	-396.752289	2167.262939	911.877380	-213.072205	2185.696289	1025.002075	-217.908051	2452.236816	1016.792847	-224.299454	2391.435791	572.150146	-24.686493	2468.278809	445.831268	-69.565788	2428.361816	305.142548	-27.541620	2375.293213	72.109894	-101.977997	2321.699463	65.573830	-162.886353	2491.394775	47.436993	-124.785744	2286.455566	592.319092	-410.036011	2253.876953	429.608459	-321.533600	2214.925781	248.447632	-377.610168	2168.766602	51.175117	-278.777039	2101.206543	39.245216	-231.119003	2282.416748	33.100842	-232.582245
307	3.06000000	2361.216309	1308.038940	-61.051388	2350.029785	1308.602783	-396.967072	2274.104736	1369.951538	-218.865494	2419.483154	1271.636597	-236.189606	2265.844238	993.903076	34.052223	2329.215576	988.059998	-504.601196	2339.724365	751.806030	36.763837	2467.566406	783.352295	-513.028091	2401.604248	897.779541	-96.261826	2364.567627	908.021851	-397.298370	2179.220459	911.040710	-212.823441	2197.503418	1024.011475	-217.773041	2464.179443	1015.918152	-224.351364	2406.213135	571.493347	-27.322031	2485.027100	446.145905	-72.294510	2454.355713	302.972504	-29.308430	2417.504639	66.051109	-102.349197	2364.246826	55.878227	-163.321350	2534.971436	48.863777	-125.475906	2291.154053	592.154968	-410.452454	2256.025146	430.363159	-321.579834	2215.236816	249.294662	-377.553192	2168.766113	52.008186	-278.317688	2101.314941	40.550476	-230.422760	2282.444824	33.073299	-232.450180
308	3.07000000	2372.650635	1306.890259	-61.100403	2362.513184	1307.162109	-396.947571	2286.031250	1368.660278	-219.208893	2431.472900	1270.423218	-236.153809	2275.828369	993.047668	33.833042	2347.108643	987.325134	-505.600403	2348.010498	750.465393	37.366217	2490.618774	786.102325	-513.029266	2414.032471	896.550842	-97.036743	2376.277832	907.053101	-397.785461	2191.235596	910.058228	-212.594879	2209.416992	1022.825134	-217.609985	2476.224854	1014.857788	-224.341568	2420.195068	570.424805	-30.094618	2500.902100	446.047058	-75.182495	2479.534912	300.939423	-31.353542	2459.061523	61.220047	-103.277840	2406.443848	47.759068	-164.383606	2577.527588	51.130623	-126.552277	2295.488525	592.070435	-410.943359	2258.371094	431.180206	-321.667480	2215.617920	250.258743	-377.500336	2168.780762	52.990330	-277.809296	2101.483398	42.048950	-229.650620	2282.489990	33.057095	-232.326019
309	3.08000000	2384.213135	1305.599731	-61.160286	2374.999756	1305.586914	-396.896637	2297.968994	1367.210449	-219.502060	2443.496582	1269.072388	-236.139786	2286.084473	992.069153	33.708019	2364.884766	986.532532	-506.468781	2356.626343	749.038544	38.049528	2513.326294	788.826843	-512.904831	2426.532227	895.242554	-97.719681	2388.021240	905.983582	-398.225952	2203.316650	908.920898	-212.380142	2221.479004	1021.427734	-217.439346	2488.390625	1013.623779	-224.264893	2433.440674	568.935120	-32.874039	2516.015869	445.548248	-78.209198	2503.676025	299.052582	-33.708717	2499.458740	57.630043	-104.796478	2447.788086	41.294147	-166.137070	2618.639404	54.117085	-127.926147	2299.680908	592.069275	-411.502594	2261.110840	432.006866	-321.801697	2216.242432	251.308334	-377.458466	2168.835449	54.115181	-277.283569	2101.722900	43.749699	-228.861603	2282.570557	33.054901	-232.224091
